<?xml version="1.0" encoding="UTF-8"?>
<svg width="197px" height="55px" viewBox="0 0 197 55" version="1.1" xmlns="http://www.w3.org/2000/svg" xmlns:xlink="http://www.w3.org/1999/xlink">
    <!-- Generator: Sketch 49.3 (51167) - http://www.bohemiancoding.com/sketch -->
    <title>innoventia_dark</title>
    <desc>Created with Sketch.</desc>
    <defs></defs>
    <g id="innoventia_dark" stroke="none" stroke-width="1" fill="none" fill-rule="evenodd">
        <g id="logo-01">
            <g id="Group">
                <g transform="translate(0.000000, 4.000000)" fill="#000000" fill-rule="nonzero" id="Shape">
                    <polygon points="5.6 0.7 5.6 32.9 0.6 32.9 0.6 0.7"></polygon>
                    <path d="M22.7,29.5 L17.2,14.4 L17.2,32.9 L12.2,32.9 L12.2,0.7 L17,0.7 L22.8,16.7 L22.8,29.5 L22.7,29.5 Z M28.6,0.7 L28.6,32.9 L24,32.9 L24,32.8 L23.7,32 L23.7,0.7 L28.6,0.7 Z"></path>
                    <path d="M44.5,29.5 L39,14.4 L39,32.9 L34,32.9 L34,0.7 L38.7,0.7 L44.5,16.7 L44.5,29.5 Z M50.3,0.7 L50.3,32.9 L45.7,32.9 L45.7,32.8 L45.4,32 L45.4,0.7 L50.3,0.7 Z"></path>
                    <path d="M94,32.9 L90.1,32.9 L83.5,0.7 L88.7,0.7 L94,32.9 Z M92.7,19.4 L95.8,0.7 L101,0.7 L94.7,31.5 L92.7,19.4 Z"></path>
                    <path d="M112,19 L112,32.9 L107,32.9 L107,0.7 L112,0.7 L112,14.3 L119.3,14.3 L119.3,19 L112,19 Z M120.9,0.7 L120.9,5.4 L112.9,5.4 L112.9,0.7 L120.9,0.7 Z M112.9,27.9 L120.9,27.9 L120.9,32.9 L112.9,32.9 L112.9,27.9 Z"></path>
                    <path d="M136.3,29.5 L130.8,14.4 L130.8,32.9 L125.8,32.9 L125.8,0.7 L130.5,0.7 L136.3,16.7 L136.3,29.5 Z M142.2,0.7 L142.2,32.9 L137.6,32.9 L137.6,32.8 L137.3,32 L137.3,0.7 L142.2,0.7 Z"></path>
                    <path d="M163.2,0.7 L163.2,5.4 L147.7,5.4 L147.7,0.7 L163.2,0.7 Z M157.9,6.3 L157.9,32.9 L152.9,32.9 L152.9,6.3 L157.9,6.3 Z"></path>
                    <polygon points="172.8 0.7 172.8 32.9 167.8 32.9 167.8 0.7"></polygon>
                    <path d="M188.6,21.5 L189.5,26.2 L184.5,26.2 L183.1,32.9 L178.1,32.9 L184.8,2.9 L186.9,13.3 L185.3,21.6 L188.6,21.6 L188.6,21.5 Z M191.7,32.9 L185.4,0.7 L189.5,0.7 L196.7,32.9 L191.7,32.9 Z"></path>
                </g>
                <path d="M64.1,41.2 L71.5,43.9 L71,45.2 L63.6,42.5 L64.1,41.2 Z M74,30.1 C74,29.2 74.4,28.4 74.9,27.8 C75.4,27.1 76.1,26.6 76.5,26.2 C77,25.8 77.4,25.4 77.8,25 C78.2,24.6 78.6,24.1 78.9,23.7 C80.7,21.3 81.8,18.3 81.8,15.1 C81.8,11.2 80.2,7.6 77.6,5.1 C75,2.5 71.5,0.9 67.6,0.9 C63.8,0.9 60.2,2.4 57.6,5.1 C55,7.7 53.4,11.2 53.4,15.1 C53.4,18.3 54.5,21.3 56.3,23.7 C56.7,24.2 57,24.6 57.4,25 C57.8,25.4 58.2,25.8 58.7,26.1 C59.3,26.6 59.9,27.1 60.3,27.7 C60.8,28.3 61.2,29.1 61.2,30 L61.2,30.9 L61.2,31.4 L61.2,32.8 L61.2,34.2 C61.2,35.4 62.2,36.3 63.3,36.3 C63.4,36.3 63.6,36.3 63.7,36.4 L65.4,37 L71.1,39.1 L71.6,37.8 L64,35 C63.8,34.9 63.5,34.9 63.3,34.9 C62.9,34.9 62.6,34.6 62.6,34.2 L62.6,32.8 L72.5,32.8 L72.5,34.2 C72.5,34.6 72.2,34.9 71.8,34.9 C71.1,34.9 70.5,35.2 70.1,35.7 L71.7,36.3 C71.7,36.3 71.8,36.3 71.8,36.3 C73,36.3 73.9,35.3 73.9,34.2 L73.9,32.8 L73.9,31.4 L73.9,31 L73.9,30.1 L74,30.1 Z M63.1,28.9 C63,27.8 62.7,26.9 62,26 C61.5,25.4 60.9,24.9 60.3,24.4 C59.9,24.1 59.6,23.8 59.2,23.4 C58.9,23.1 58.6,22.7 58.3,22.3 C56.8,20.3 56,18 55.9,15.5 L55.9,15.3 C55.9,12.2 57.1,9.3 59.3,7.1 C61.5,4.9 64.4,3.7 67.5,3.7 C70.6,3.7 73.5,4.9 75.7,7.1 C77.9,9.3 79.1,12.2 79.1,15.3 L79.1,15.5 C79,17.9 78.2,20.3 76.7,22.3 C76.4,22.7 76.1,23 75.8,23.4 C75.5,23.7 75.1,24 74.8,24.3 C74.2,24.8 73.6,25.3 73.1,25.9 C72.4,26.8 72.1,27.7 72,28.8 L72,30.1 L63,30.1 L63,28.9 L63.1,28.9 Z M64.1,38.2 L71.7,41 L71.2,42.3 L63.6,39.5 L64.1,38.2 Z M69.3,46.1 C68.7,46.8 67.8,47.1 66.9,46.7 C66,46.4 65.5,45.6 65.5,44.7 L69.3,46.1 Z" id="Shape" fill="#29BCB4"></path>
            </g>
            <g id="Group" transform="translate(97.000000, 41.000000)" fill="#000000" fill-rule="nonzero">
                <g transform="translate(11.000000, 0.000000)" id="Shape">
                    <path d="M11,5 C10.9,5 10.7,5 10.6,5 C10.1,5 9.7,5 9.2,5 C8.6,5 8.1,4.9 7.7,4.4 C7,3.5 5.8,3.4 4.8,3.8 C3.8,4.3 3.1,5.3 3.2,6.5 C3.3,7.5 4.1,8.5 5.1,8.8 C6.1,9.1 7.2,8.8 8,7.9 C8.2,7.7 8.4,7.6 8.7,7.6 C9.5,7.6 10.3,7.6 11.1,7.6 C10.9,9.6 8.8,11.5 6.5,11.7 C3,12 0.7,9.4 0.5,6.7 C0.3,3.7 2.5,1.1 5.5,0.9 C7.9,0.6 10.7,2.6 11,5 Z"></path>
                    <path d="M19.3,4.3 C19.4,4.3 19.4,4.3 19.4,4.3 C20.6,3.1 22.7,3.5 23.9,4.5 C25.1,5.6 25.6,7 25.2,8.6 C24.8,10.2 23.7,11.3 22,11.6 C21.2,11.8 20.3,11.7 19.6,11 C19.5,10.9 19.4,10.9 19.3,10.8 C19.3,11 19.2,11.2 19.2,11.3 C19.2,12 19.2,12.6 19.2,13.3 C19.2,13.6 19.1,13.7 18.8,13.7 C18.2,13.7 17.5,13.7 16.9,13.7 C16.6,13.7 16.5,13.6 16.5,13.3 C16.5,10.2 16.5,7.1 16.5,3.9 C16.5,3.6 16.6,3.5 16.9,3.5 C17.4,3.5 17.9,3.5 18.4,3.5 C19.1,3.6 19.1,3.6 19.3,4.3 Z M20.9,9.2 C21.8,9.2 22.6,8.5 22.6,7.6 C22.6,6.7 21.8,5.9 20.9,5.9 C20,5.9 19.2,6.7 19.2,7.6 C19.2,8.5 20,9.2 20.9,9.2 Z"></path>
                    <path d="M36.4,4.3 C36.5,3.6 36.5,3.6 37.2,3.6 C37.8,3.6 38.3,3.6 38.9,3.6 C39.2,3.6 39.3,3.7 39.3,4 C39.3,6.4 39.3,8.8 39.3,11.2 C39.3,11.5 39.2,11.6 38.9,11.6 C38.3,11.6 37.7,11.6 37.1,11.6 C36.7,11.6 36.5,11.5 36.5,11.1 C36.5,11.1 36.5,11 36.5,11 C36.5,11 36.5,11 36.5,11 C36.5,11 36.4,11 36.4,11 C35,12.4 32.7,11.7 31.6,10.4 C30.6,9.2 30.2,7.9 30.7,6.4 C31.2,4.9 32.3,4 33.8,3.6 C34.7,3.4 35.6,3.5 36.3,4.2 C36.2,4.2 36.3,4.2 36.4,4.3 Z M36.5,7.6 C36.5,6.7 35.8,5.9 34.9,5.9 C34,5.9 33.2,6.6 33.2,7.5 C33.2,8.4 33.9,9.2 34.8,9.2 C35.8,9.2 36.4,8.5 36.5,7.6 Z"></path>
                    <path d="M26.5,6.2 C26.5,4.6 26.5,3 26.5,1.4 C26.5,1 26.6,0.9 27,0.9 C27.6,0.9 28.2,0.9 28.8,0.9 C29.1,0.9 29.2,1 29.2,1.3 C29.2,4.6 29.2,7.9 29.2,11.2 C29.2,11.5 29.1,11.6 28.8,11.6 C28.2,11.6 27.5,11.6 26.9,11.6 C26.6,11.6 26.5,11.5 26.5,11.1 C26.5,9.5 26.5,7.8 26.5,6.2 Z"></path>
                    <path d="M12.3,7.5 C12.3,6.3 12.3,5.2 12.3,4 C12.3,3.7 12.4,3.5 12.8,3.5 C13.4,3.5 14,3.5 14.6,3.5 C14.9,3.5 15,3.6 15,3.9 C15,6.3 15,8.7 15,11.1 C15,11.4 14.9,11.5 14.6,11.5 C14,11.5 13.4,11.5 12.8,11.5 C12.5,11.5 12.3,11.4 12.4,11 C12.3,9.9 12.3,8.7 12.3,7.5 Z"></path>
                    <path d="M13.6,2.6 C13.3,2.6 13,2.6 12.6,2.6 C12.3,2.6 12.2,2.5 12.2,2.2 C12.1,0.9 12.1,0.9 13.4,0.9 C13.8,0.9 14.1,0.9 14.5,0.9 C14.8,0.9 14.9,1 14.9,1.3 C15,2.6 15,2.6 13.7,2.6 C13.7,2.6 13.7,2.6 13.6,2.6 Z"></path>
                </g>
                <path d="M0.5,11.8 L4.2,3.9 L7.9,11.8 L6.5,11.8 L5.8,10.3 L2.5,10.3 L1.8,11.8 L0.5,11.8 Z M3.1,9.1 L5.3,9.1 L4.2,6.6 L3.1,9.1 Z" id="Shape"></path>
                <g transform="translate(55.000000, 3.000000)" id="Shape">
                    <polygon points="0.9 8.4 0.9 0.8 2.3 0.8 2.3 8.4"></polygon>
                    <path d="M4,8.4 L4,2.9 L5.3,2.9 L5.3,3.7 C5.6,3.2 6.2,2.8 7,2.8 C8.3,2.8 9.1,3.6 9.1,5 L9.1,8.4 L7.8,8.4 L7.8,5.2 C7.8,4.5 7.4,4 6.6,4 C5.9,4 5.3,4.5 5.3,5.3 L5.3,8.5 L4,8.5 L4,8.4 Z"></path>
                    <path d="M10.4,1.5 C10.4,1.1 10.7,0.7 11.2,0.7 C11.6,0.7 12,1 12,1.5 C12,2 11.7,2.3 11.2,2.3 C10.7,2.3 10.4,1.9 10.4,1.5 Z M10.5,8.4 L10.5,2.9 L11.8,2.9 L11.8,8.4 L10.5,8.4 Z"></path>
                    <polygon points="13.7 8.4 13.7 4.1 13 4.1 13 2.9 13.7 2.9 13.7 0.8 15 0.8 15 2.9 16.2 2.9 16.2 4.1 15 4.1 15 8.4"></polygon>
                    <path d="M17.1,1.5 C17.1,1.1 17.4,0.7 17.9,0.7 C18.3,0.7 18.7,1 18.7,1.5 C18.7,2 18.4,2.3 17.9,2.3 C17.5,2.3 17.1,1.9 17.1,1.5 Z M17.3,8.4 L17.3,2.9 L18.6,2.9 L18.6,8.4 L17.3,8.4 Z"></path>
                    <path d="M24.3,3.7 L24.3,2.9 L25.6,2.9 L25.6,8.4 L24.3,8.4 L24.3,7.6 C24.1,8.1 23.5,8.5 22.5,8.5 C21.7,8.5 21.1,8.2 20.5,7.7 C20,7.1 19.7,6.5 19.7,5.7 C19.7,4.9 20,4.2 20.5,3.7 C21,3.1 21.7,2.9 22.5,2.9 C23.5,2.8 24.1,3.2 24.3,3.7 Z M23.9,6.8 C24.2,6.5 24.4,6.1 24.4,5.6 C24.4,5.1 24.2,4.7 23.9,4.4 C23.6,4.1 23.2,3.9 22.7,3.9 C22.2,3.9 21.9,4.1 21.5,4.4 C21.2,4.7 21,5.1 21,5.6 C21,6.1 21.2,6.5 21.5,6.8 C21.8,7.1 22.2,7.3 22.7,7.3 C23.2,7.3 23.6,7.1 23.9,6.8 Z"></path>
                    <polygon points="27.5 8.4 27.5 4.1 26.8 4.1 26.8 2.9 27.5 2.9 27.5 0.8 28.8 0.8 28.8 2.9 30 2.9 30 4.1 28.8 4.1 28.8 8.4"></polygon>
                    <path d="M30.9,1.5 C30.9,1.1 31.2,0.7 31.7,0.7 C32.1,0.7 32.5,1 32.5,1.5 C32.5,2 32.2,2.3 31.7,2.3 C31.3,2.3 30.9,1.9 30.9,1.5 Z M31.1,8.4 L31.1,2.9 L32.4,2.9 L32.4,8.4 L31.1,8.4 Z"></path>
                    <polygon points="36.3 8.7 33.4 2.9 34.8 2.9 36.4 6.2 38 2.9 39.3 2.9"></polygon>
                    <path d="M39.5,5.6 C39.5,4.7 39.8,4 40.3,3.5 C40.8,3 41.5,2.7 42.3,2.7 C43.1,2.7 43.7,3 44.2,3.5 C44.7,4 44.9,4.7 44.9,5.4 C44.9,5.6 44.9,5.7 44.9,5.9 L40.7,5.9 C40.7,6.8 41.4,7.3 42.4,7.3 C43.3,7.3 43.9,7.1 44.4,6.7 L44.4,7.9 C43.9,8.3 43.2,8.5 42.4,8.5 C41.5,8.5 40.8,8.2 40.3,7.7 C39.8,7.2 39.5,6.6 39.5,5.6 Z M43.7,5.1 C43.7,4.8 43.6,4.5 43.3,4.3 C43,4.1 42.7,4 42.3,4 C41.9,4 41.6,4.1 41.3,4.3 C41,4.5 40.9,4.8 40.8,5.1 L43.7,5.1 Z"></path>
                </g>
            </g>
        </g>
    </g>
</svg>