<svg id="Layer_1" data-name="Layer 1" xmlns="http://www.w3.org/2000/svg" viewBox="0 0 288 72.49"><defs><style>.cls-1{fill:#fff;}.cls-2{fill:#29bcb4;fill-rule:evenodd;}</style></defs><title>innoventia_light</title><path class="cls-1" d="M49.46,17.8V50h-5V17.8Z"/><path class="cls-1" d="M66.6,46.59,61.11,31.51V50h-5V17.8h4.69l5.76,16ZM72.45,17.8V50H67.8l0-.14-.27-.76V17.8Z"/><path class="cls-1" d="M88.38,46.59,82.89,31.51V50h-5V17.8h4.68l5.76,16ZM94.23,17.8V50H89.59l0-.14-.26-.76V17.8Z"/><path class="cls-1" d="M137.85,50H134L127.4,17.8h5.22ZM136.6,36.51l3.08-18.71h5.17l-6.29,30.85Z"/><path class="cls-1" d="M155.88,36.1V50h-4.95V17.8h4.95V31.42h7.28V36.1Zm8.88-18.3v4.69h-8V17.8Zm-8,27.23h8v5h-8Z"/><path class="cls-1" d="M180.21,46.59l-5.49-15.08V50h-5V17.8h4.69l5.76,16Zm5.85-28.79V50h-4.65l0-.14-.27-.76V17.8Z"/><path class="cls-1" d="M207,17.8v4.69H191.55V17.8Zm-5.27,5.58V50h-5V23.38Z"/><path class="cls-1" d="M216.73,17.8V50h-5V17.8Z"/><path class="cls-1" d="M232.44,38.65l.89,4.69h-5L227,50h-5l6.7-30,2,10.41-1.56,8.3ZM235.57,50l-6.3-32.19h4.06L240.52,50Z"/><path class="cls-2" d="M107.94,54.31l7.42,2.7-.49,1.33-7.42-2.7.49-1.33Zm9.94-11.14a3.73,3.73,0,0,1,.9-2.29,9.53,9.53,0,0,1,1.61-1.56q.67-.55,1.29-1.17a13.21,13.21,0,0,0,1.13-1.33,14.11,14.11,0,0,0,2.88-8.57h0a14.2,14.2,0,0,0-28.4,0h0a14.11,14.11,0,0,0,2.89,8.57,13.21,13.21,0,0,0,1.13,1.33c.4.4.82.79,1.26,1.15a9.81,9.81,0,0,1,1.64,1.58,3.73,3.73,0,0,1,.9,2.29v4.26a2.14,2.14,0,0,0,2.13,2.13,1.07,1.07,0,0,1,.39.1l1.68.61,5.74,2.1.49-1.34L108,48.27h0a2.16,2.16,0,0,0-.71-.12.71.71,0,0,1-.71-.71V46h9.94v1.42a.71.71,0,0,1-.71.71,2.14,2.14,0,0,0-1.7.84l1.6.59h.1a2.13,2.13,0,0,0,2.13-2.13V43.17ZM107,42a5.17,5.17,0,0,0-1.09-2.88,10.24,10.24,0,0,0-1.67-1.62,13.7,13.7,0,0,1-1.06-1,10.5,10.5,0,0,1-.92-1.08,11.51,11.51,0,0,1-2.35-6.76v-.24a11.6,11.6,0,1,1,23.2,0v.24a11.58,11.58,0,0,1-2.35,6.76,12,12,0,0,1-.93,1.08,10.26,10.26,0,0,1-1,.94,10.93,10.93,0,0,0-1.69,1.64A5.09,5.09,0,0,0,116,42v1.29h-9V42Zm1,9.33,7.59,2.77L115,55.39l-7.59-2.77.49-1.33Zm5.19,7.94a2.14,2.14,0,0,1-2.37.65h0a2.14,2.14,0,0,1-1.4-2l3.77,1.38Z"/><path class="cls-1" d="M159.35,56.34h-.26c-.29,0-.58,0-.86,0a1,1,0,0,1-.9-.35,1.47,1.47,0,0,0-1.74-.35,1.61,1.61,0,0,0,.17,3,1.55,1.55,0,0,0,1.72-.56.48.48,0,0,1,.42-.2h1.43a3.14,3.14,0,0,1-2.77,2.46,3.27,3.27,0,1,1,2.79-4Z"/><path class="cls-1" d="M164.35,55.91l.07,0a2,2,0,0,1,2.68.15,2.35,2.35,0,0,1,.77,2.44A2.4,2.4,0,0,1,166,60.3a1.56,1.56,0,0,1-1.43-.33,1.33,1.33,0,0,0-.19-.14,2.14,2.14,0,0,0,0,.32c0,.39,0,.79,0,1.18,0,.18,0,.27-.25.26-.38,0-.77,0-1.16,0-.17,0-.22-.06-.22-.22,0-1.88,0-3.76,0-5.63,0-.19.08-.24.25-.23s.59,0,.88,0S164.24,55.51,164.35,55.91Zm1,3a1,1,0,0,0,1-1,1,1,0,0,0-2,0A1,1,0,0,0,165.31,58.88Z"/><path class="cls-1" d="M174.61,55.92c.08-.41.08-.41.48-.41h1c.17,0,.23.05.23.22v4.33c0,.17-.07.22-.23.22H175c-.24,0-.38,0-.33-.31a.41.41,0,0,0,0-.08h0s0,0,0,0a2.06,2.06,0,0,1-2.89-.36,2.32,2.32,0,0,1-.52-2.38A2.4,2.4,0,0,1,173,55.48a1.58,1.58,0,0,1,1.49.37S174.56,55.89,174.61,55.92Zm0,2a1,1,0,0,0-1-1,1,1,0,0,0-1,1,1,1,0,0,0,1,1A.93.93,0,0,0,174.65,57.92Z"/><path class="cls-1" d="M168.69,57.09c0-1,0-1.93,0-2.89,0-.23.07-.31.3-.3s.74,0,1.1,0c.17,0,.23.07.23.23v5.92c0,.17-.07.23-.23.23H169c-.2,0-.27-.07-.27-.27C168.69,59,168.69,58.06,168.69,57.09Z"/><path class="cls-1" d="M160.14,57.89c0-.7,0-1.4,0-2.1,0-.21.05-.3.28-.29s.73,0,1.1,0c.18,0,.24.06.24.24v4.3c0,.18-.08.24-.25.23h-1.1c-.2,0-.27-.06-.27-.27C160.14,59.3,160.14,58.6,160.14,57.89Z"/><path class="cls-1" d="M160.94,54.92a5.61,5.61,0,0,0-.58,0c-.16,0-.22-.05-.23-.22,0-.79,0-.79.73-.79.22,0,.44,0,.66,0s.23.05.23.22c0,.79,0,.79-.73.79Z"/><path class="cls-1" d="M145,54.67h.81L147.7,60h-.79l-.56-1.61h-2.09L143.68,60h-.74Zm1.2,3.16-.83-2.37-.85,2.37Z"/><path class="cls-1" d="M182.57,54.67h.73V60h-.73Z"/><path class="cls-1" d="M187,54.67h.85L190.52,59V54.67h.69V60h-.81l-2.7-4.32V60H187Z"/><path class="cls-1" d="M195.08,54.67h.73V60h-.73Z"/><path class="cls-1" d="M203.4,54.67v.64h-1.8V60h-.73V55.31h-1.8v-.64Z"/><path class="cls-1" d="M206.77,54.67h.73V60h-.73Z"/><path class="cls-1" d="M212.77,54.67h.81L215.52,60h-.79l-.56-1.61h-2.1L211.49,60h-.74Zm1.2,3.16-.83-2.37-.85,2.37Z"/><path class="cls-1" d="M222,54.67v.64h-1.8V60h-.73V55.31h-1.8v-.64Z"/><path class="cls-1" d="M225.4,54.67h.74V60h-.74Z"/><path class="cls-1" d="M230.27,54.67l1.53,4.55,1.52-4.55h.81L232.18,60h-.77l-1.94-5.35Z"/><path class="cls-1" d="M237.41,54.67h3.88v.66h-3.17V57h2.93v.62h-2.93v1.81h3.23V60h-3.94Z"/></svg>